[center][img]http://img812.imageshack.us/img812/9976/31575167398278436326.jpg[/img]



[img]http://leetleech.org/images/48874973695367351744.png[/img]


Format                           : AVI
Format/Info                      : Audio Video Interleave
File size                        : 1.21 GiB
Duration                         : 1h 40mn
Overall bit rate                 : 1 715 Kbps
Writing application              : VirtualDubMod 1.5.10.2 (build 2540/release)
Writing library                  : VirtualDub build 32839/release

Video
ID                               : 0
Format                           : MPEG-4 Visual
Format profile                   : Advanced Simple@L5
Format settings, BVOP            : Yes
Format settings, QPel            : No
Format settings, GMC             : No warppoints
Format settings, Matrix          : Custom
Codec ID                         : XVID
Codec ID/Hint                    : XviD
Duration                         : 1h 40mn
Bit rate                         : 1 257 Kbps
Width                            : 720 pixels
Height                           : 304 pixels
Display aspect ratio             : 2.35:1
Frame rate                       : 25.000 fps
Color space                      : YUV
Chroma subsampling               : 4:2:0
Bit depth                        : 8 bits
Scan type                        : Progressive
Bits/(Pixel*Frame)               : 0.230
Stream size                      : 906 MiB (73%)
Writing library                  : XviD 1.2.1 (UTC 2008-12-04)

Audio
ID                               : 1
Format                           : AC-3
Format/Info                      : Audio Coding 3
Mode extension                   : CM (complete main)
Codec ID                         : 2000
Duration                         : 1h 40mn
Bit rate mode                    : Constant
Bit rate                         : 448 Kbps
Channel(s)                       : 6 channels
Channel positions                : Front: L C R, Side: L R, LFE
Sampling rate                    : 48.0 KHz
Bit depth                        : 16 bits
Stream size                      : 323 MiB (26%)
Alignment                        : Split accross interleaves
Interleave, duration             : 40 ms (1.00 video frame)
Interleave, preload duration     : 500 ms




[url]http://www.imdb.com/title/tt1464174/[/url]




[IMG]http://leetleech.org/images/89524873606771859129.png[/IMG]



Users: 2.7/10 (2,052 votes) 13 reviews | Critics: 64 reviews Metascore: 22/100 (based on 14 reviews from Metacritic.com)

FBI agent Malcolm Turner and his stepson Trent go undercover at an all-girls performing arts school after Trent witnesses a murder.
Director:
John Whitesell
Writers:
Matthew Fogel (screenplay), Don Rhymer (story), and 2 more credits »
Stars:
Martin Lawrence, Brandon T. Jackson and Jessica Lucas 


[img]http://leetleech.org/images/95521316153253938506.png[/img]



 
http://img36.imageshack.us/img36/2129/vlcsnap2011032204h39m49.png 
http://img13.imageshack.us/img13/1166/vlcsnap2011032204h38m50.png 
http://img848.imageshack.us/img848/8320/vlcsnap2011032204h40m26.png



Source...............: ViDE0......Bom.Bolshoi.Mamochki.3.2011.DVD9.........Thanks
AUDi0.....: T0XiCiNK .................Thanks

Few filters sharpen,rgb brightness/contrast .....Loads of copies of this out now so either enjoy or see you on another one

Greetz to Imagine ,Flawl3ss,DiLLoN,BDK,NOiR,TOXiCiNK,THC,Ez,Rx,





[img]http://img411.imageshack.us/img411/6898/sig1n.jpg[/img]




